<svg version="1.1" xmlns="http://www.w3.org/2000/svg" xmlns:xlink="http://www.w3.org/1999/xlink" width="96.03381" height="98.81595" viewBox="0,0,96.03381,98.81595"><g transform="translate(-191.94811,-130.60275)"><g data-paper-data="{&quot;isPaintingLayer&quot;:true}" fill="none" fill-rule="evenodd" stroke-width="2.5" stroke-linecap="butt" stroke-linejoin="miter" stroke-miterlimit="10" stroke-dasharray="" stroke-dashoffset="0" style="mix-blend-mode: normal"><path d="M193.85168,145.32927c0.05653,-0.09149 0.26571,-0.05485 0.37685,0.066c0.05947,0.06464 0.125,0.22338 0.14562,0.3527c0.03407,0.21346 0.16878,0.58873 0.36864,1.02682c0.04133,0.09056 0.07515,0.18967 0.07515,0.2203c0,0.03063 0.0348,0.13289 0.07734,0.22726c0.04253,0.09437 0.16109,0.39498 0.26351,0.668c0.23341,0.62222 0.59145,1.54381 0.68013,1.75048c0.03695,0.08621 0.13297,0.3096 0.21334,0.49641c0.17703,0.41159 0.61188,1.18254 0.98868,1.75303c0.7157,1.08357 1.82587,2.11519 3.05454,2.83843c0.30175,0.17761 0.76029,0.47404 1.01894,0.65871c0.6691,0.47775 1.03978,0.69391 1.95948,1.14287c0.44545,0.21742 1.04507,0.55096 1.33246,0.74121c0.63362,0.41944 0.84283,0.52875 1.604,0.83834c0.55106,0.22411 2.81141,1.3405 3.51677,1.737c0.17243,0.09688 0.56041,0.30668 0.86217,0.46615c0.30175,0.15948 0.70563,0.38061 0.8974,0.49144c0.19183,0.11078 0.36044,0.20144 0.3747,0.20144c0.01426,0 0.25552,0.13257 0.53611,0.29455c0.28064,0.16204 0.78217,0.42294 1.11456,0.5798c0.33238,0.15687 0.74539,0.35668 0.91781,0.44399c0.17243,0.08727 0.50068,0.25353 0.72941,0.36947c0.26461,0.13404 0.51177,0.21935 0.67929,0.23441c0.16648,0.01499 0.32109,0.0681 0.42016,0.14423c0.34498,0.26523 0.554,0.48741 0.59318,0.63065c0.02269,0.08288 0.0242,3.54844 0.00335,7.70123c-0.02085,4.15279 -0.05486,14.15791 -0.07561,22.23358c-0.0207,8.07567 -0.04201,15.10629 -0.0474,15.62359c-0.00533,0.51731 -0.01729,1.91638 -0.02665,3.10905c-0.0093,1.19267 -0.02701,2.1167 -0.03929,2.05338c-0.01222,-0.06328 -0.06464,-0.12855 -0.11637,-0.14495c-0.09395,-0.02984 -0.15901,-0.33171 -0.16011,-0.7432c-0.00026,-0.09536 -0.03479,-0.18644 -0.08041,-0.21199c-0.04493,-0.02514 -0.09891,-0.16481 -0.12331,-0.31926c-0.02388,-0.15096 -0.07018,-0.30129 -0.10294,-0.33405c-0.03276,-0.03276 -0.05957,-0.13695 -0.05957,-0.23159c0,-0.11537 -0.03438,-0.19343 -0.1045,-0.23722c-0.0731,-0.04567 -0.10451,-0.12185 -0.10451,-0.25373c0,-0.11345 -0.04159,-0.23639 -0.1045,-0.30893c-0.05748,-0.06626 -0.10451,-0.17045 -0.10451,-0.23153c0,-0.06103 -0.04703,-0.15127 -0.10451,-0.20049c-0.05748,-0.04923 -0.1045,-0.13528 -0.1045,-0.19125c0,-0.05601 -0.0719,-0.17969 -0.15974,-0.27484c-0.08784,-0.09521 -0.17296,-0.23719 -0.18916,-0.3156c-0.0162,-0.07838 -0.06192,-0.16941 -0.10158,-0.20232c-0.03961,-0.03291 -0.07206,-0.09119 -0.07206,-0.12953c0,-0.03835 -0.09374,-0.17067 -0.20838,-0.29409c-0.11458,-0.12337 -0.20864,-0.26193 -0.20901,-0.30787c-0.00032,-0.04598 -0.16507,-0.2576 -0.36604,-0.47028c-0.20096,-0.21273 -0.38061,-0.43374 -0.39926,-0.49123c-0.05006,-0.1544 -0.59563,-0.70317 -0.77679,-0.78138c-0.08621,-0.03721 -0.31372,-0.22045 -0.50559,-0.40721c-0.19187,-0.18681 -0.40397,-0.35344 -0.47138,-0.37036c-0.06736,-0.01688 -0.19255,-0.09835 -0.27819,-0.18096c-0.08559,-0.08266 -0.26534,-0.21398 -0.39943,-0.29178c-0.13407,-0.07786 -0.27218,-0.17572 -0.30688,-0.21753c-0.0347,-0.0418 -0.11971,-0.07602 -0.18895,-0.07602c-0.06923,0 -0.13884,-0.03386 -0.15473,-0.07518c-0.01588,-0.04133 -0.09578,-0.08987 -0.17761,-0.10785c-0.08182,-0.01797 -0.17682,-0.06648 -0.21104,-0.10771c-0.03427,-0.04128 -0.10284,-0.07503 -0.15238,-0.07503c-0.04959,0 -0.14437,-0.04703 -0.21063,-0.10451c-0.06626,-0.05748 -0.17641,-0.1045 -0.24475,-0.1045c-0.0684,0 -0.13785,-0.03528 -0.15435,-0.07838c-0.02022,-0.05262 -0.10288,-0.07838 -0.25154,-0.07838c-0.15509,0 -0.24977,-0.0313 -0.31603,-0.10451c-0.06672,-0.07373 -0.16094,-0.1045 -0.31979,-0.1045c-0.17171,0 -0.23849,-0.02483 -0.28112,-0.10451c-0.04353,-0.08136 -0.11046,-0.10487 -0.30227,-0.10618c-0.13549,-0.00089 -0.29204,-0.03615 -0.3478,-0.07838c-0.06975,-0.05278 -0.23336,-0.07671 -0.524,-0.07671c-0.31832,0 -0.4544,-0.02252 -0.55169,-0.09143c-0.11323,-0.08016 -0.29409,-0.09354 -1.46318,-0.10832c-1.2942,-0.01636 -1.33688,-0.01358 -1.43198,0.09144c-0.08658,0.09568 -0.15838,0.10832 -0.61408,0.10832c-0.41055,0 -0.52222,0.01605 -0.54615,0.07838c-0.02231,0.05811 -0.11453,0.07838 -0.35605,0.07838c-0.25959,0 -0.34523,0.02128 -0.42054,0.10451c-0.06202,0.06856 -0.16094,0.10451 -0.28739,0.10451c-0.12645,0 -0.22536,0.03594 -0.28739,0.1045c-0.05733,0.06333 -0.16094,0.10451 -0.26299,0.10451c-0.09259,0 -0.19763,0.03528 -0.23341,0.07838c-0.03579,0.0431 -0.11778,0.07838 -0.18226,0.07838c-0.06443,0 -0.17692,0.04703 -0.25003,0.1045c-0.07304,0.05748 -0.18121,0.10451 -0.24036,0.10451c-0.0591,0 -0.13261,0.04703 -0.1634,0.10451c-0.03663,0.06845 -0.10942,0.1045 -0.21084,0.1045c-0.08522,0 -0.15493,0.02404 -0.15493,0.05335c0,0.02936 -0.06464,0.08156 -0.14369,0.11595c-0.07905,0.03439 -0.247,0.13971 -0.37329,0.23398c-0.12625,0.09432 -0.26753,0.1715 -0.31389,0.1715c-0.04634,0 -0.15743,0.07974 -0.24689,0.1772c-0.08946,0.09746 -0.21681,0.19437 -0.28301,0.21537c-0.15953,0.05063 -0.11631,0.01135 -1.27972,1.16268c-0.63795,0.63126 -1.01721,1.04506 -1.01721,1.10974c0,0.0567 -0.094,0.19161 -0.2089,0.29972c-0.1149,0.10812 -0.20895,0.22945 -0.20901,0.26958c-0.00006,0.04013 -0.0824,0.17342 -0.183,0.29617c-0.10059,0.1228 -0.18289,0.27134 -0.18289,0.33013c0,0.05883 -0.04703,0.1321 -0.10451,0.16287c-0.06114,0.03271 -0.1045,0.10941 -0.1045,0.18471c0,0.07085 -0.04703,0.17584 -0.10451,0.23332c-0.05748,0.05748 -0.10451,0.14865 -0.10451,0.20263c0,0.05393 -0.03526,0.12735 -0.07838,0.16314c-0.0431,0.03579 -0.07838,0.12076 -0.07838,0.18885c0,0.06808 -0.04703,0.15315 -0.1045,0.18904c-0.0683,0.04264 -0.10451,0.12186 -0.10451,0.22856c0,0.08976 -0.04498,0.22045 -0.1,0.29042c-0.05502,0.06992 -0.10791,0.19401 -0.11757,0.27573c-0.01176,0.09939 -0.05846,0.16361 -0.14117,0.19397l-0.12368,0.04541l0.03228,-9.96781c0.03892,-12.03774 0.07922,-18.62527 0.12045,-19.71296c0.02221,-0.58512 0.12373,-33.19885 0.11621,-37.32227c-0.00047,-0.25186 0.01353,-0.48108 0.03104,-0.50946M210.65055,226.40025c0,-0.05225 0.05225,-0.07838 0.15676,-0.07838c0.08621,0 0.15676,0.01143 0.15676,0.02545c0,0.02811 -0.31724,0.23393 -0.61737,0.40062c-0.63163,0.35073 -1.43774,0.72349 -1.56454,0.72349c-0.05168,0 -0.14317,0.03449 -0.20333,0.07661c-0.06014,0.04212 -0.20055,0.09881 -0.31205,0.12602c-0.1115,0.02717 -0.27328,0.07295 -0.35951,0.10168c-0.42095,0.1404 -1.25063,0.2796 -2.09012,0.35067c-0.11496,0.00977 -0.33833,0.03229 -0.49641,0.05017c-0.38401,0.04331 -2.10088,-0.11031 -2.59958,-0.23268c-0.12212,-0.02994 -0.31023,-0.07457 -0.41803,-0.09923c-0.36468,-0.08329 -0.95361,-0.27866 -0.98288,-0.32611c-0.01605,-0.02592 0.06631,-0.04713 0.18294,-0.04713c0.14923,0 0.2121,0.02216 0.2121,0.07488c0,0.10765 0.17677,0.14839 0.46918,0.10817c0.22359,-0.03078 0.261,-0.02189 0.31231,0.07388c0.05418,0.10131 0.10309,0.10884 0.70693,0.10884c0.50957,0 0.65775,0.0161 0.69078,0.07503c0.03355,0.05999 0.21956,0.07717 0.92404,0.08549c0.76905,0.00904 0.88814,-0.00057 0.92985,-0.07509c0.04028,-0.07196 0.15038,-0.08543 0.69658,-0.08543c0.59522,0 0.65331,-0.00863 0.70463,-0.10451c0.04755,-0.08889 0.10942,-0.1045 0.4138,-0.1045c0.32079,0 0.36081,-0.0115 0.38683,-0.11093c0.02601,-0.09954 0.05324,-0.10728 0.26513,-0.0755c0.20353,0.03051 0.24539,0.02058 0.30318,-0.07195c0.05456,-0.08732 0.12107,-0.10737 0.35636,-0.10737c0.22469,0 0.30934,-0.02336 0.37883,-0.10451c0.04923,-0.05748 0.14922,-0.10451 0.22228,-0.10451c0.07299,0 0.14631,-0.03528 0.16282,-0.07838c0.01715,-0.04463 0.09505,-0.07838 0.18084,-0.07838c0.09411,0 0.17521,-0.03923 0.21597,-0.1045c0.0431,-0.06902 0.12186,-0.10451 0.23206,-0.10451c0.12091,0 0.17593,-0.02873 0.19997,-0.1045c0.01824,-0.05748 0.06683,-0.10451 0.108,-0.10451c0.04117,0 0.07489,-0.03528 0.07489,-0.07838" stroke="#63cbfc"/><path d="M210.14103,132.87753c-0.05027,-0.01311 -0.06787,-0.02612 -0.03914,-0.0289c0.02873,-0.00282 0.25211,0.09959 0.4964,0.22746c0.24429,0.12791 0.5147,0.26848 0.60091,0.31242c0.08621,0.04389 0.22729,0.12504 0.31352,0.18032c0.08621,0.05528 0.27433,0.1588 0.41803,0.23002c0.38312,0.18993 1.55484,0.75014 1.64598,0.78698c0.0431,0.0174 0.11364,0.05283 0.15675,0.0787c0.0431,0.02586 0.3488,0.17626 0.6793,0.33416c0.96835,0.46269 1.56862,0.76319 1.95948,0.98083c0.42178,0.23488 0.42727,0.2377 0.60091,0.30902c0.07185,0.02953 0.16589,0.07728 0.20901,0.10607c0.0431,0.02885 0.13716,0.07587 0.20902,0.10451c0.07185,0.02869 0.16591,0.07221 0.20901,0.09683c0.09494,0.05418 0.39582,0.19423 0.57479,0.26753c0.07185,0.02942 0.16589,0.07477 0.20901,0.10079c0.0431,0.02601 0.4546,0.22761 0.91443,0.44802c0.92994,0.44572 1.47985,0.72182 2.06398,1.03639c0.63163,0.34011 0.65003,0.34899 0.72009,0.34936c0.03684,0.00016 0.08052,0.03559 0.09703,0.0787c0.01657,0.0431 0.06045,0.07838 0.0975,0.07838c0.0371,0 0.22856,0.08173 0.4255,0.18159c0.19694,0.09986 0.41687,0.20562 0.48873,0.23503c0.07185,0.02936 0.16591,0.07461 0.20901,0.10053c0.0431,0.02592 0.29001,0.14663 0.54866,0.26826c0.97687,0.4594 2.71495,1.34676 3.2658,1.66734c0.0431,0.02514 0.31353,0.15733 0.60092,0.29387c0.28739,0.13649 0.53036,0.268 0.53993,0.29225c0.00962,0.02425 0.04833,0.04405 0.08611,0.04405c0.03773,0 0.22976,0.08172 0.4267,0.18158c0.19694,0.09986 0.41687,0.20561 0.48872,0.23503c0.07185,0.02936 0.16591,0.07508 0.20902,0.10162c0.0431,0.0265 0.50163,0.25819 1.01893,0.51485c0.85156,0.42253 1.4334,0.72119 1.64596,0.84488c0.0431,0.02514 0.30176,0.15435 0.57478,0.28718c0.27302,0.13283 0.53167,0.26199 0.57479,0.28702c0.0431,0.02497 0.29001,0.14349 0.54866,0.26341c0.25865,0.11987 0.50554,0.23984 0.54866,0.26664c0.0431,0.02676 0.13716,0.07295 0.20901,0.10263c0.1854,0.0765 0.596,0.28055 0.62704,0.31159c0.01437,0.01437 0.27302,0.14986 0.57478,0.30108c0.54552,0.27333 0.9998,0.50695 1.14957,0.59119c0.07577,0.04259 0.88328,0.43683 1.14957,0.56125c0.07185,0.0336 0.16591,0.08162 0.20902,0.10676c0.09651,0.05633 0.81404,0.40005 0.99281,0.47561c0.19406,0.08204 2.55093,1.30971 2.71715,1.41532c0.0431,0.02737 0.13716,0.07326 0.20901,0.10189c0.07185,0.02869 0.16591,0.07572 0.20902,0.10451c0.0431,0.02885 0.13716,0.07587 0.20901,0.10451c0.07185,0.02869 0.16591,0.07252 0.20901,0.09745c0.07163,0.04139 1.10145,0.53639 1.41084,0.67809c0.07185,0.03291 0.16589,0.08068 0.20901,0.10618c0.0431,0.02545 0.39582,0.20279 0.7838,0.39404c0.38798,0.19129 0.94056,0.47619 1.22795,0.63315c0.28739,0.15692 0.59306,0.32109 0.67929,0.36473c0.08621,0.04368 0.19204,0.10257 0.23514,0.13095c0.0431,0.02832 0.13716,0.07494 0.20901,0.10356c0.07185,0.02869 0.1659,0.072 0.20902,0.0963c0.0431,0.0243 0.18419,0.09259 0.31352,0.15185c0.29758,0.13627 0.78577,0.37219 0.8883,0.42931c0.0431,0.02399 0.29001,0.14172 0.54866,0.26164c0.25865,0.11987 0.50554,0.23984 0.54866,0.26664c0.0431,0.02676 0.13716,0.07212 0.20901,0.10079c0.07185,0.02864 0.16591,0.07326 0.20901,0.09911c0.0431,0.02586 0.38406,0.20473 0.75768,0.3975c0.3736,0.19271 0.77334,0.40616 0.8883,0.4743c0.11496,0.06808 0.26779,0.14949 0.33965,0.18085c0.43437,0.18964 0.62703,0.28916 0.62703,0.32397c0,0.02174 0.0312,0.0395 0.06929,0.0395c0.09515,0 3.56919,1.75808 3.72088,1.88297c0.07139,0.05873 2.63192,1.32429 2.95045,1.45827c0.07185,0.0302 0.16591,0.07708 0.20901,0.10414c0.0431,0.02707 0.39581,0.20332 0.7838,0.39158c0.38798,0.18831 0.87,0.43563 1.07119,0.54961c0.20118,0.11397 0.40105,0.22166 0.44415,0.23937c0.0431,0.01772 0.1195,0.05398 0.16982,0.08063c0.05032,0.02665 0.13257,0.07023 0.18289,0.09688c0.05032,0.02665 0.12671,0.06234 0.16982,0.07938c0.0431,0.01698 0.43108,0.2158 0.86217,0.44184c0.43108,0.22599 1.27758,0.66214 1.88111,0.96923c0.60352,0.30709 1.31948,0.6728 1.59105,0.81269c0.27151,0.13982 0.53015,0.26691 0.57478,0.28227c0.04458,0.01541 0.11632,0.04876 0.15942,0.07405c0.0431,0.02535 0.18419,0.09416 0.31352,0.15294c0.3131,0.14239 0.79085,0.37424 0.88831,0.43119c0.0431,0.02524 0.41933,0.21241 0.83605,0.41603c0.41672,0.20358 0.99281,0.49708 1.2802,0.65222c0.28739,0.15509 0.60482,0.32638 0.70542,0.38056c0.45804,0.24689 1.67309,0.84572 1.93337,0.95294c0.07185,0.02957 0.16589,0.07561 0.20901,0.10231c0.0431,0.0267 0.56041,0.28734 1.14957,0.57923c0.58915,0.29184 1.27105,0.63617 1.51534,0.76524c0.53878,0.28457 0.99149,0.52801 1.09732,0.59009c0.0431,0.02529 0.38405,0.19104 0.75767,0.36834c0.68013,0.32276 0.91562,0.44222 1.30633,0.66257c0.11496,0.06484 0.27956,0.15462 0.36578,0.19945c0.28284,0.14714 0.57755,0.33937 0.94055,0.61371c0.14369,0.10858 0.28479,0.21492 0.31352,0.23629c0.84556,0.62886 1.83638,1.61566 2.40363,2.39387c0.37037,0.5081 0.70463,1.03069 0.70505,1.10223c0.00021,0.03349 0.01802,0.06876 0.03955,0.07838c0.02153,0.00956 0.09798,0.1115 0.16982,0.22657c0.33546,0.537 0.96495,2.07543 1.12249,2.74312c0.03726,0.15806 0.10561,0.44023 0.15185,0.62704c0.14819,0.59872 0.18806,0.79921 0.26508,1.33245c0.04149,0.28739 0.09992,0.66362 0.12985,0.83606c0.02994,0.17243 0.05518,0.51338 0.05601,0.75767c0.00083,0.24429 0.02195,0.53188 0.04682,0.63905c0.07127,0.30694 -0.03255,2.27813 -0.1563,2.9664c-0.05942,0.3305 -0.13941,0.70672 -0.17776,0.83605c-0.0384,0.12933 -0.08565,0.31742 -0.10498,0.41802c-0.04024,0.20922 -0.407,1.31871 -0.53189,1.60886c-0.20305,0.47184 -0.61555,1.30465 -0.71665,1.44683c-0.13794,0.19402 -0.22182,0.33384 -0.28895,0.48162c-0.25197,0.55461 -1.69048,2.20558 -2.4541,2.81648c-0.06835,0.05471 -0.20942,0.17572 -0.31352,0.269c-0.1041,0.09328 -0.20478,0.16972 -0.22374,0.16982c-0.01896,0.00016 -0.14943,0.08846 -0.2899,0.19621c-0.29836,0.22892 -0.41144,0.3039 -0.59004,0.39121c-0.07185,0.03511 -0.14239,0.07791 -0.15676,0.0951c-0.05779,0.06914 -1.18358,0.6689 -1.41084,0.75161c-0.0431,0.01573 -0.11365,0.04822 -0.15675,0.07232c-0.0431,0.02409 -0.16068,0.08549 -0.26127,0.13644c-0.10059,0.05095 -0.33572,0.17584 -0.52253,0.27752c-0.64976,0.35365 -2.16222,1.13358 -2.35137,1.21252c-0.07185,0.02999 -0.16591,0.07691 -0.20902,0.10424c-0.0431,0.02737 -0.4546,0.22861 -0.91443,0.44724c-0.45983,0.21863 -1.11821,0.54264 -1.46309,0.72004c-1.60897,0.82763 -2.23167,1.14496 -2.69102,1.37127c-0.27302,0.13455 -0.53166,0.2657 -0.57478,0.29152c-0.0431,0.02576 -0.13716,0.07027 -0.20901,0.09897c-0.07185,0.02864 -0.16591,0.07566 -0.20902,0.1045c-0.0431,0.02879 -0.13716,0.07708 -0.20901,0.10722c-0.14735,0.06187 -0.50847,0.24005 -0.62704,0.30944c-0.0431,0.02524 -0.29408,0.15205 -0.55769,0.28185c-0.26361,0.1298 -0.52227,0.25991 -0.57479,0.28912c-0.05252,0.02921 -0.2483,0.12692 -0.43511,0.21712c-0.18681,0.09019 -0.46761,0.23064 -0.62406,0.31216c-0.15644,0.08152 -0.32105,0.16078 -0.36577,0.17625c-0.04472,0.01541 -0.11663,0.05058 -0.15974,0.07818c-0.0431,0.02754 -0.29,0.14813 -0.54866,0.26801c-0.25865,0.11992 -0.50556,0.23832 -0.54866,0.2632c-0.27997,0.16147 -1.02499,0.51904 -1.08142,0.51904c-0.03747,0 -0.06813,0.02095 -0.06813,0.04656c0,0.02566 -0.08814,0.0858 -0.19594,0.13372c-0.10774,0.04792 -0.29001,0.14281 -0.40496,0.21089c-0.5669,0.33572 -2.74829,1.43391 -3.10904,1.56523c-0.0431,0.01573 -0.11366,0.05104 -0.15676,0.07858c-0.0431,0.02754 -0.29001,0.14641 -0.54866,0.26414c-0.25865,0.11772 -0.50554,0.23649 -0.54866,0.26392c-0.0431,0.02737 -0.13716,0.07327 -0.20901,0.10194c-0.07185,0.02864 -0.16591,0.0742 -0.20902,0.10116c-0.0431,0.02702 -0.25474,0.13999 -0.47028,0.25102c-0.21554,0.11109 -0.69757,0.36304 -1.07119,0.55993c-0.3736,0.19689 -0.72041,0.3779 -0.77073,0.4022c-0.21873,0.1056 -0.50042,0.24955 -0.61396,0.31366c-0.0431,0.02434 -0.13716,0.06767 -0.20902,0.09636c-0.07185,0.02864 -0.16591,0.0741 -0.20901,0.10107c-0.0431,0.02691 -0.20771,0.11072 -0.36577,0.18618c-0.15806,0.0755 -0.32265,0.15932 -0.36577,0.18632c-0.0431,0.02702 -0.13716,0.074 -0.20902,0.10434c-0.26074,0.11031 -0.814,0.39456 -1.38471,0.71131c-0.17243,0.09573 -0.98366,0.5057 -1.80272,0.91114c-0.81906,0.40538 -1.5747,0.78149 -1.67921,0.83588c-0.10451,0.05434 -0.22506,0.09882 -0.26796,0.09882c-0.04284,0 -0.10718,0.03528 -0.14296,0.07838c-0.03579,0.0431 -0.10603,0.07838 -0.15613,0.07838c-0.05006,0 -0.1508,0.04703 -0.22391,0.10451c-0.07304,0.05748 -0.17039,0.1045 -0.21623,0.1045c-0.04588,0 -0.17113,0.04703 -0.27841,0.10451c-0.10722,0.05748 -0.27176,0.10451 -0.36556,0.10451c-0.09385,0 -0.17061,0.02425 -0.17061,0.05387c0,0.02968 -0.02936,0.06421 -0.06531,0.07686c-0.18158,0.06375 -0.34178,0.14224 -0.48333,0.23676c-0.08621,0.05759 -0.2214,0.13294 -0.30045,0.16742c-0.07905,0.03453 -0.14369,0.08084 -0.14369,0.10289c0,0.02205 -0.07645,0.07561 -0.16982,0.11903c-0.09343,0.04348 -0.24036,0.12541 -0.32658,0.1821c-0.08621,0.05675 -0.3919,0.22385 -0.67929,0.37135c-0.28739,0.14752 -0.58131,0.30067 -0.65316,0.34032c-0.07185,0.0397 -0.17175,0.07252 -0.22207,0.07295c-0.05032,0.00041 -0.09144,0.02336 -0.09144,0.05095c0,0.02759 -0.09432,0.07844 -0.20963,0.11297c-0.11527,0.03453 -0.23577,0.09427 -0.26764,0.13272c-0.03193,0.03845 -0.0963,0.07007 -0.14307,0.07027c-0.04682,0.00016 -0.15561,0.04703 -0.24184,0.10415c-0.08621,0.05711 -0.20676,0.10398 -0.26796,0.10414c-0.06114,0.00021 -0.13851,0.03334 -0.17197,0.07362c-0.03339,0.04028 -0.12448,0.08809 -0.20232,0.10628c-0.07786,0.01819 -0.2121,0.06599 -0.29831,0.10623c-0.29068,0.13571 -0.67745,0.24742 -0.99281,0.28677c-0.17243,0.02148 -0.39582,0.07196 -0.4964,0.11213c-0.14458,0.05768 -0.56596,0.0728 -2.01173,0.07196c-1.60938,-0.00089 -1.85629,-0.01186 -2.05751,-0.09143c-0.12572,-0.04969 -0.33265,-0.0904 -0.45977,-0.0904c-0.12719,0 -0.29466,-0.0325 -0.3723,-0.07221c-0.0776,-0.0397 -0.24689,-0.0882 -0.37622,-0.10774c-0.12933,-0.01955 -0.30569,-0.0683 -0.3919,-0.10828c-0.08621,-0.03998 -0.24256,-0.08616 -0.34748,-0.10263c-0.10487,-0.01646 -0.21941,-0.06458 -0.25457,-0.10691c-0.03516,-0.04238 -0.12567,-0.07717 -0.20118,-0.07738c-0.07556,-0.00016 -0.20786,-0.04703 -0.29409,-0.10414c-0.08621,-0.05711 -0.21042,-0.10398 -0.27594,-0.10415c-0.06558,-0.00021 -0.13189,-0.03334 -0.14735,-0.07362c-0.01541,-0.04028 -0.10638,-0.08794 -0.20211,-0.10586c-0.09568,-0.01797 -0.20275,-0.0673 -0.23791,-0.10963c-0.03516,-0.04238 -0.10517,-0.07702 -0.1556,-0.07702c-0.05043,0 -0.12024,-0.03439 -0.15509,-0.07635c-0.03485,-0.04201 -0.11067,-0.09139 -0.16852,-0.10973c-0.09798,-0.03109 -0.41436,-0.22313 -0.54259,-0.32935c-0.03092,-0.0256 -0.10738,-0.06279 -0.16982,-0.0826c-0.06244,-0.01981 -0.11354,-0.05419 -0.11354,-0.07641c0,-0.02221 -0.05967,-0.06751 -0.13262,-0.10073c-0.13335,-0.06077 -0.20786,-0.11433 -0.39367,-0.28295c-0.05539,-0.05032 -0.12311,-0.09144 -0.15039,-0.09144c-0.02734,0 -0.06844,-0.02994 -0.09143,-0.06657c-0.02299,-0.03663 -0.10158,-0.10445 -0.17457,-0.1508c-0.07304,-0.04634 -0.24444,-0.19276 -0.38088,-0.32533c-0.13644,-0.13262 -0.2576,-0.2411 -0.26926,-0.2411c-0.05648,0 -1.16462,-1.19496 -1.25495,-1.35334c-0.05158,-0.09034 -0.12128,-0.17729 -0.30045,-0.37475c-0.05032,-0.05539 -0.09144,-0.12061 -0.09144,-0.1449c0,-0.0243 -0.04703,-0.08674 -0.1045,-0.13874c-0.05748,-0.05199 -0.10451,-0.11846 -0.10451,-0.14767c0,-0.02921 -0.03909,-0.0963 -0.08679,-0.14902c-0.08857,-0.09787 -0.17033,-0.22813 -0.28936,-0.46098c-0.03673,-0.07185 -0.09642,-0.16173 -0.13268,-0.19966c-0.03626,-0.03799 -0.06594,-0.09908 -0.06594,-0.13571c0,-0.03669 -0.04703,-0.12091 -0.10451,-0.18717c-0.05748,-0.06626 -0.1045,-0.16104 -0.1045,-0.21063c0,-0.04953 -0.03375,-0.1181 -0.07504,-0.15237c-0.04123,-0.03423 -0.08976,-0.12954 -0.10785,-0.21178c-0.01807,-0.08225 -0.06662,-0.17755 -0.10785,-0.21178c-0.04128,-0.03427 -0.0752,-0.1123 -0.0754,-0.17342c-0.00016,-0.0612 -0.04703,-0.18173 -0.10414,-0.26794c-0.05711,-0.08621 -0.10398,-0.21372 -0.10414,-0.28327c-0.00021,-0.0696 -0.03762,-0.16773 -0.08318,-0.21805c-0.0455,-0.05032 -0.0964,-0.19287 -0.11302,-0.31681c-0.01661,-0.12394 -0.06166,-0.25676 -0.10006,-0.29517c-0.0384,-0.0384 -0.06986,-0.1393 -0.06986,-0.22417c0,-0.08491 -0.04703,-0.28817 -0.10451,-0.45166c-0.05748,-0.16355 -0.1045,-0.41866 -0.1045,-0.56695c0,-0.14824 -0.03998,-0.37247 -0.08889,-0.49818c-0.07713,-0.1985 -0.08889,-0.45267 -0.08889,-1.92688c0,-1.47421 0.01176,-1.72837 0.08889,-1.92688c0.04891,-0.12572 0.08904,-0.36086 0.0892,-0.52253c0.00021,-0.16161 0.03401,-0.35841 0.07514,-0.43731c0.04117,-0.07885 0.0906,-0.2552 0.10984,-0.3919c0.01928,-0.13664 0.06432,-0.29548 0.10012,-0.35296c0.03574,-0.05748 0.08187,-0.21759 0.10246,-0.35574c0.02105,-0.14114 0.07024,-0.26383 0.11219,-0.27992c0.04274,-0.0164 0.07488,-0.09896 0.07509,-0.19291c0.00016,-0.09034 0.04703,-0.23477 0.10414,-0.32099c0.05711,-0.08621 0.10398,-0.20676 0.10414,-0.26796c0.00021,-0.06114 0.03412,-0.13915 0.0754,-0.17342c0.04123,-0.03423 0.0905,-0.13277 0.10942,-0.21894c0.01891,-0.08617 0.06745,-0.16935 0.10784,-0.18486c0.04039,-0.01547 0.07347,-0.08084 0.07347,-0.14521c0,-0.06437 0.04703,-0.17128 0.1045,-0.23754c0.05748,-0.06626 0.10451,-0.15049 0.10451,-0.18717c0,-0.03663 0.02942,-0.09854 0.06531,-0.13753c0.08496,-0.09228 0.23048,-0.34294 0.30442,-0.52441c0.03219,-0.07901 0.08046,-0.14369 0.10733,-0.14369c0.02686,0 0.06626,-0.04112 0.08757,-0.09144c0.07645,-0.18022 0.28263,-0.48333 0.32883,-0.48333c0.02586,0 0.04708,-0.03413 0.04708,-0.07576c0,-0.04169 0.02994,-0.09457 0.06657,-0.11756c0.03663,-0.02299 0.10467,-0.10059 0.15122,-0.17244c0.04656,-0.07185 0.15179,-0.20566 0.23388,-0.29737c0.08209,-0.09175 0.20777,-0.2387 0.27929,-0.32658c0.07154,-0.08794 0.15968,-0.15984 0.19594,-0.15984c0.03626,0 0.06588,-0.02011 0.06588,-0.04467c0,-0.04598 0.53094,-0.43464 0.80993,-0.59292c0.22593,-0.12818 2.05875,-1.03538 2.61264,-1.2932c0.25865,-0.12039 0.50556,-0.24083 0.54866,-0.26764c0.0431,-0.02676 0.13716,-0.07336 0.20902,-0.1035c0.2738,-0.11496 0.60195,-0.27882 0.62703,-0.3131c0.01437,-0.01971 0.08491,-0.05346 0.15676,-0.07509c0.07185,-0.02168 0.1659,-0.0696 0.20902,-0.10649c0.12766,-0.10927 2.06325,-1.07008 2.15574,-1.07008c0.04671,0 0.09845,-0.02179 0.11491,-0.04844c0.01646,-0.02665 0.11715,-0.07723 0.2237,-0.11239c0.10659,-0.03516 0.22552,-0.09568 0.26429,-0.13445c0.03877,-0.03877 0.10503,-0.0705 0.14725,-0.0705c0.04223,0 0.14047,-0.04212 0.21831,-0.09354c0.24956,-0.16486 0.34111,-0.21424 0.84702,-0.45689c0.27302,-0.131 0.53168,-0.25939 0.57478,-0.2854c0.14234,-0.08585 1.52631,-0.79377 2.42976,-1.24283c0.48856,-0.24287 0.92358,-0.46228 0.96668,-0.48763c0.07498,-0.04415 0.31106,-0.15868 1.12986,-0.54849c0.20468,-0.0974 0.40845,-0.17714 0.45287,-0.17714c0.04437,0 0.08846,-0.02038 0.09809,-0.04525c0.00956,-0.02492 0.51118,-0.28536 1.1147,-0.5788c0.60352,-0.29346 1.13258,-0.55446 1.1757,-0.58001c0.23493,-0.13925 1.02228,-0.52028 1.07505,-0.52028c0.03396,0 0.08973,-0.03375 0.124,-0.07503c0.03423,-0.04123 0.13116,-0.09013 0.21539,-0.10863c0.08424,-0.0185 0.15315,-0.05346 0.15315,-0.07771c0,-0.02425 0.08245,-0.07127 0.18329,-0.10456c0.19192,-0.06333 0.35668,-0.2611 0.21748,-0.2611c-0.04024,0 -0.12922,-0.04342 -0.19778,-0.09656c-0.06856,-0.05309 -0.18925,-0.11229 -0.26832,-0.13162c-0.07905,-0.01928 -0.14369,-0.05628 -0.14369,-0.0822c0,-0.02586 -0.06892,-0.06222 -0.15315,-0.08072c-0.08424,-0.0185 -0.18115,-0.06741 -0.21538,-0.10863c-0.03427,-0.04128 -0.09233,-0.07503 -0.12901,-0.07503c-0.03669,0 -0.41594,-0.17327 -0.84269,-0.385c-0.75542,-0.37481 -1.45749,-0.71206 -1.70087,-0.81703c-0.06611,-0.02849 -0.15546,-0.07316 -0.19856,-0.09928c-0.0431,-0.02613 -0.30177,-0.15624 -0.57479,-0.28906c-0.47582,-0.23153 -0.56663,-0.27814 -0.77073,-0.3956c-0.05032,-0.02895 -0.15023,-0.07849 -0.22207,-0.1101c-0.07185,-0.03161 -0.16591,-0.0766 -0.20901,-0.10006c-0.0431,-0.02341 -0.30175,-0.15206 -0.57478,-0.28587c-0.67302,-0.32987 -1.00378,-0.49458 -1.09732,-0.54635c-0.0431,-0.02388 -0.13716,-0.06923 -0.20901,-0.10084c-0.07185,-0.03161 -0.16591,-0.07875 -0.20902,-0.10482c-0.0431,-0.02607 -0.29,-0.14542 -0.54866,-0.26534c-0.25865,-0.11987 -0.50555,-0.23785 -0.54865,-0.26221c-0.0431,-0.02434 -0.31771,-0.16323 -0.61022,-0.30871c-0.29245,-0.14542 -0.54661,-0.28843 -0.5648,-0.3178c-0.01813,-0.02936 -0.06391,-0.05341 -0.10168,-0.05341c-0.05847,0 -0.28697,-0.11862 -0.60441,-0.31363c-0.06689,-0.04112 -0.47059,-0.22463 -0.73154,-0.3326c-0.0431,-0.01782 -0.1195,-0.05607 -0.16982,-0.08502c-0.19183,-0.11031 -0.50983,-0.26858 -0.92749,-0.46171c-0.07185,-0.03318 -0.16591,-0.08147 -0.20901,-0.10717c-0.0431,-0.02576 -0.2077,-0.10968 -0.36577,-0.18655c-0.15806,-0.07686 -0.32267,-0.15927 -0.36578,-0.18315c-0.0431,-0.02388 -0.13716,-0.06923 -0.20901,-0.10084c-0.07185,-0.03161 -0.16591,-0.07717 -0.20901,-0.10127c-0.0431,-0.02409 -0.16067,-0.08591 -0.26127,-0.13733c-0.43339,-0.22151 -1.08712,-0.57107 -1.2802,-0.68457c-0.11496,-0.06761 -0.24429,-0.13727 -0.28739,-0.15488c-0.23226,-0.09473 -2.55512,-1.21222 -2.6649,-1.28197c-0.0431,-0.02743 -0.13716,-0.07326 -0.20901,-0.10194c-0.07185,-0.02864 -0.16591,-0.0742 -0.20901,-0.10116c-0.0431,-0.02702 -0.25474,-0.13973 -0.47028,-0.2505c-0.99808,-0.51286 -1.35858,-0.71111 -1.35858,-0.74716c0,-0.02142 -0.07995,-0.05398 -0.17766,-0.07232c-0.09766,-0.01834 -0.20634,-0.06798 -0.2415,-0.11031c-0.03516,-0.04238 -0.10638,-0.07702 -0.15828,-0.07702c-0.05188,0 -0.12965,-0.03528 -0.17275,-0.07838c-0.0431,-0.0431 -0.0951,-0.07838 -0.11559,-0.07838c-0.02049,0 -0.13381,-0.04437 -0.25191,-0.09856c-0.11814,-0.05424 -0.27354,-0.12457 -0.34539,-0.15639c-0.07185,-0.03182 -0.16591,-0.07901 -0.20902,-0.10487c-0.0431,-0.02592 -0.63096,-0.3201 -1.30633,-0.65373c-0.67537,-0.33368 -1.41605,-0.71096 -1.64597,-0.83845c-0.22991,-0.12749 -0.66492,-0.35406 -0.96669,-0.50345c-0.30175,-0.14944 -0.55649,-0.29193 -0.56606,-0.3167c-0.00962,-0.02477 -0.05455,-0.04498 -0.0999,-0.04498c-0.10717,0 -2.62429,-1.22272 -3.38362,-1.64362c-0.58152,-0.32235 -1.78115,-0.91677 -1.85012,-0.91677c-0.0314,0 -0.05711,-0.02246 -0.05711,-0.04989c0,-0.02743 -0.08115,-0.0651 -0.18037,-0.08371c-0.11167,-0.02095 -0.21617,-0.08652 -0.27432,-0.17217c-0.08956,-0.13188 -0.09426,-0.59255 -0.10043,-9.80514c-0.00742,-11.11151 -0.00956,-11.18085 -0.39404,-12.72356c-0.03224,-0.12933 -0.08935,-0.36446 -0.12697,-0.52253c-0.31054,-1.30544 -1.18305,-3.03344 -2.13824,-4.23493c-0.53758,-0.67615 -1.58875,-1.72847 -2.06314,-2.06545c-0.21554,-0.1531 -0.48433,-0.36179 -0.59736,-0.4638c-0.11297,-0.10199 -0.23122,-0.18544 -0.26268,-0.18544c-0.0315,0 -0.09755,-0.04703 -0.14678,-0.1045c-0.04923,-0.05748 -0.12498,-0.10451 -0.16836,-0.10451c-0.04342,0 -0.0789,-0.02404 -0.0789,-0.05335c0,-0.02936 -0.05696,-0.07937 -0.1266,-0.11108c-0.06966,-0.03172 -0.1402,-0.11182 -0.15682,-0.17792c-0.01657,-0.06616 -0.07132,-0.131 -0.12159,-0.14417M203.46923,204.78988c0.0951,-0.10503 0.13779,-0.1078 1.43198,-0.09144c1.16911,0.01478 1.34996,0.02816 1.46318,0.10832c0.09729,0.06892 0.23336,0.09144 0.55169,0.09144c0.29063,0 0.45423,0.02393 0.524,0.07671c0.05575,0.04223 0.2123,0.07749 0.3478,0.07838c0.19183,0.0013 0.25876,0.02482 0.30227,0.10618c0.04264,0.07968 0.10942,0.10451 0.28112,0.10451c0.15884,0 0.25306,0.03078 0.31979,0.10451c0.06626,0.07321 0.16094,0.1045 0.31603,0.1045c0.14865,0 0.23133,0.02576 0.25155,0.07838c0.01651,0.0431 0.08595,0.07838 0.15435,0.07838c0.06835,0 0.1785,0.04703 0.24475,0.10451c0.06626,0.05748 0.16104,0.10451 0.21063,0.10451c0.04953,0 0.1181,0.03375 0.15237,0.07503c0.03423,0.04123 0.12922,0.08972 0.21104,0.1077c0.08182,0.01797 0.16173,0.06652 0.17761,0.10786c0.01588,0.04133 0.08548,0.07518 0.15473,0.07518c0.06923,0 0.15425,0.03423 0.18895,0.07602c0.0347,0.0418 0.17281,0.13968 0.30689,0.21753c0.13407,0.0778 0.31383,0.20912 0.39942,0.29178c0.08565,0.08261 0.21084,0.16407 0.27819,0.18095c0.06741,0.01694 0.2795,0.18356 0.47137,0.37037c0.19187,0.18675 0.41939,0.36999 0.5056,0.4072c0.18116,0.07822 0.72673,0.62698 0.77679,0.78138c0.01865,0.05748 0.1983,0.2785 0.39927,0.49123c0.20096,0.21267 0.36571,0.42429 0.36603,0.47028c0.00037,0.04593 0.09441,0.18451 0.20901,0.30787c0.11464,0.12342 0.20839,0.25572 0.20839,0.29408c0,0.03835 0.03245,0.09662 0.07206,0.12954c0.03966,0.03291 0.08539,0.12394 0.10158,0.20232c0.0162,0.07844 0.10131,0.22041 0.18916,0.3156c0.08784,0.09515 0.15974,0.21883 0.15974,0.27484c0,0.05597 0.04703,0.14202 0.10451,0.19125c0.05748,0.04923 0.1045,0.13947 0.1045,0.2005c0,0.06108 0.04703,0.16528 0.10451,0.23153c0.06291,0.07252 0.10451,0.19547 0.10451,0.30892c0,0.13188 0.0314,0.20807 0.1045,0.25374c0.07012,0.04379 0.10451,0.12186 0.10451,0.23722c0,0.09463 0.0268,0.19883 0.05956,0.23159c0.03276,0.03276 0.07907,0.18308 0.10295,0.33404c0.0244,0.15445 0.07838,0.29413 0.12331,0.31927c0.04562,0.02555 0.08015,0.11663 0.08041,0.21199c0.0011,0.41838 0.0659,0.7133 0.1634,0.74424c0.09285,0.02947 0.0974,0.12655 0.0974,2.07014c0,1.99528 -0.00225,2.03985 -0.10451,2.06655c-0.09463,0.02477 -0.10451,0.07127 -0.10451,0.49155c0,0.37773 -0.01458,0.46416 -0.07838,0.46416c-0.05921,0 -0.07838,0.06381 -0.07838,0.26086c0,0.2042 -0.02267,0.27495 -0.1045,0.32605c-0.07771,0.04854 -0.10451,0.12186 -0.10451,0.28598c0,0.16727 -0.02535,0.2343 -0.10451,0.27668c-0.07665,0.04102 -0.1045,0.10942 -0.1045,0.25673c0,0.11072 -0.03365,0.22871 -0.07503,0.26304c-0.04123,0.03423 -0.08977,0.12954 -0.10786,0.21178c-0.01807,0.08225 -0.06662,0.17755 -0.10785,0.21178c-0.04128,0.03427 -0.07503,0.10451 -0.07503,0.15613c0,0.14971 -0.05753,0.25913 -0.13622,0.25913c-0.04003,0 -0.0728,0.036 -0.0728,0.08c0,0.04405 -0.03528,0.09359 -0.07838,0.1101c-0.0431,0.01657 -0.07838,0.07269 -0.07838,0.12472c0,0.15049 -0.05737,0.25996 -0.13622,0.25996c-0.04598,0 -0.07278,0.05753 -0.07278,0.15634c0,0.09969 -0.03783,0.17991 -0.1045,0.22156c-0.05748,0.03589 -0.10451,0.09489 -0.10451,0.1311c0,0.03615 -0.03297,0.06579 -0.07326,0.06579c-0.04028,0 -0.09981,0.06469 -0.13225,0.14369c-0.10107,0.24611 -0.17489,0.34231 -0.56522,0.73614c-0.20834,0.2102 -0.37883,0.40397 -0.37883,0.4305c0,0.0265 -0.0337,0.04823 -0.07488,0.04823c-0.04117,0 -0.08978,0.04703 -0.10801,0.10451c-0.01824,0.05748 -0.06683,0.1045 -0.108,0.1045c-0.04117,0 -0.07488,0.0312 -0.07488,0.06929c0,0.08052 -0.19375,0.26628 -0.32658,0.3132c-0.05032,0.01772 -0.09144,0.06824 -0.09144,0.11228c0,0.04399 -0.02246,0.08 -0.04989,0.08c-0.06479,0 -0.31586,0.25107 -0.31586,0.31588c0,0.02743 -0.03444,0.04989 -0.07655,0.04989c-0.04206,0 -0.10168,0.04703 -0.13246,0.1045c-0.03663,0.06845 -0.10942,0.10451 -0.21084,0.10451c-0.10691,0 -0.15493,0.02581 -0.15493,0.08329c0,0.04578 -0.04703,0.09558 -0.10451,0.11057c-0.05748,0.01505 -0.10451,0.05988 -0.10451,0.09966c0,0.04813 -0.06275,0.07226 -0.18779,0.07226c-0.1438,0 -0.19417,0.02445 -0.21508,0.10451c-0.02053,0.07854 -0.07128,0.10451 -0.20416,0.10451c-0.12227,0 -0.17677,0.02414 -0.17677,0.07838c0,0.0431 -0.0337,0.07838 -0.07489,0.07838c-0.04117,0 -0.08978,0.04703 -0.108,0.1045c-0.02404,0.07577 -0.07906,0.10451 -0.19998,0.10451c-0.1102,0 -0.18895,0.03548 -0.23205,0.1045c-0.04076,0.06527 -0.12186,0.10451 -0.21597,0.10451c-0.0858,0 -0.1637,0.03375 -0.18084,0.07838c-0.01651,0.0431 -0.08983,0.07838 -0.16282,0.07838c-0.07304,0 -0.17306,0.04703 -0.22228,0.10451c-0.06949,0.08115 -0.15414,0.1045 -0.37883,0.1045c-0.23529,0 -0.30181,0.02007 -0.35636,0.10738c-0.05779,0.09253 -0.09965,0.10246 -0.30318,0.07195c-0.21188,-0.03176 -0.23911,-0.02404 -0.26513,0.0755c-0.02601,0.09943 -0.06605,0.11092 -0.38683,0.11092c-0.30437,0 -0.36624,0.01562 -0.4138,0.10451c-0.05131,0.09588 -0.10942,0.10451 -0.70463,0.10451c-0.5462,0 -0.65631,0.01347 -0.69659,0.08542c-0.04169,0.07451 -0.16078,0.08413 -0.92984,0.07509c-0.70447,-0.00831 -0.8905,-0.02549 -0.92404,-0.08548c-0.03303,-0.05895 -0.18121,-0.07503 -0.69078,-0.07503c-0.60383,0 -0.65276,-0.00753 -0.70693,-0.10884c-0.05131,-0.09578 -0.08872,-0.10467 -0.31231,-0.07388c-0.29241,0.04024 -0.46918,-0.00052 -0.46918,-0.10817c0,-0.05581 -0.07232,-0.07489 -0.2839,-0.07489c-0.24324,0 -0.28886,-0.01583 -0.31895,-0.11066c-0.03031,-0.09541 -0.06406,-0.10676 -0.24511,-0.08245c-0.2447,0.03282 -0.35386,0.00204 -0.35386,-0.09986c0,-0.04807 -0.06087,-0.07278 -0.17939,-0.07278c-0.13346,0 -0.18785,-0.02675 -0.21251,-0.1045c-0.02492,-0.07849 -0.07905,-0.10451 -0.21736,-0.10451c-0.10503,0 -0.24125,-0.04489 -0.31702,-0.10451c-0.0731,-0.05748 -0.17212,-0.1045 -0.22009,-0.1045c-0.04803,0 -0.17715,-0.0823 -0.28693,-0.18289c-0.11537,-0.10566 -0.2541,-0.18289 -0.32862,-0.18289c-0.08502,0 -0.13826,-0.03564 -0.15629,-0.1045c-0.01505,-0.05748 -0.05701,-0.10451 -0.09322,-0.10451c-0.03626,0 -0.09515,-0.03528 -0.13095,-0.07838c-0.03579,-0.0431 -0.10901,-0.07838 -0.16271,-0.07838c-0.05372,0 -0.12702,-0.04703 -0.16293,-0.1045c-0.03589,-0.05748 -0.09331,-0.10451 -0.12755,-0.10451c-0.03427,0 -0.07724,-0.04703 -0.09547,-0.10451c-0.02137,-0.0673 -0.07905,-0.1045 -0.16198,-0.1045c-0.0974,0 -0.35177,-0.22396 -1.04157,-0.91689c-0.54265,-0.54516 -0.9127,-0.95732 -0.9127,-1.01657c0,-0.10263 -0.2272,-0.36566 -0.31586,-0.36566c-0.02743,0 -0.04989,-0.03444 -0.04989,-0.07656c0,-0.04206 -0.04703,-0.10168 -0.1045,-0.13246c-0.06051,-0.03234 -0.10451,-0.10941 -0.10451,-0.18288c0,-0.07347 -0.044,-0.15054 -0.10451,-0.18289c-0.05748,-0.03078 -0.1045,-0.08784 -0.1045,-0.12687c0,-0.03904 -0.03307,-0.08366 -0.07347,-0.09912c-0.04039,-0.01553 -0.08883,-0.09839 -0.1077,-0.18413c-0.0188,-0.08575 -0.06808,-0.16888 -0.10942,-0.18476c-0.04227,-0.0162 -0.0752,-0.0974 -0.0752,-0.1854c0,-0.10309 -0.03568,-0.17567 -0.1045,-0.21251c-0.06845,-0.03663 -0.10451,-0.10942 -0.10451,-0.21084c0,-0.10231 -0.02639,-0.15492 -0.07775,-0.15492c-0.05012,0 -0.08946,-0.07316 -0.11066,-0.20578c-0.01807,-0.11318 -0.06542,-0.21825 -0.10514,-0.23352c-0.0397,-0.01526 -0.07221,-0.09537 -0.07221,-0.17804c0,-0.08392 -0.04614,-0.19202 -0.10451,-0.24485c-0.07968,-0.07211 -0.1045,-0.16094 -0.1045,-0.37388c0,-0.2039 -0.01965,-0.27929 -0.07278,-0.27929c-0.10237,0 -0.13623,-0.11793 -0.13623,-0.47456c0,-0.24005 -0.01756,-0.30924 -0.07838,-0.30924c-0.06271,0 -0.07837,-0.07838 -0.07837,-0.3919c0,-0.30013 -0.01704,-0.3919 -0.07279,-0.3919c-0.04003,0 -0.08704,-0.03719 -0.1045,-0.08266c-0.01746,-0.04547 -0.03171,-0.86865 -0.03171,-1.82937c0,-1.68202 0.00387,-1.75 0.10451,-1.83617c0.08894,-0.07613 0.10451,-0.15415 0.10451,-0.52368c0,-0.33771 0.0174,-0.44087 0.07838,-0.46422c0.05748,-0.02205 0.07838,-0.11265 0.07838,-0.33933c0,-0.28176 0.0116,-0.31363 0.13063,-0.35888c0.09343,-0.03554 0.13063,-0.08862 0.13063,-0.18643c0,-0.0752 0.04703,-0.19652 0.10451,-0.26958c0.05748,-0.0731 0.10451,-0.20635 0.10451,-0.29611c0,-0.1067 0.0362,-0.18592 0.1045,-0.22856c0.05748,-0.03589 0.10451,-0.12096 0.10451,-0.18904c0,-0.06808 0.03528,-0.15306 0.07838,-0.18885c0.0431,-0.03579 0.07838,-0.10921 0.07838,-0.16313c0,-0.05398 0.04703,-0.14516 0.1045,-0.20264c0.05748,-0.05748 0.10451,-0.16245 0.10451,-0.23331c0,-0.0753 0.04337,-0.152 0.10451,-0.18471c0.05748,-0.03078 0.1045,-0.10404 0.1045,-0.16287c0,-0.05878 0.0823,-0.20734 0.18289,-0.33013c0.10059,-0.12275 0.18294,-0.25604 0.183,-0.29617c0.00006,-0.04013 0.09411,-0.16146 0.20901,-0.26958c0.1149,-0.10812 0.2089,-0.24302 0.2089,-0.29972c0,-0.06469 0.37925,-0.47848 1.01721,-1.10974c1.16341,-1.15134 1.1202,-1.11205 1.27973,-1.16268c0.0662,-0.02101 0.19354,-0.11793 0.283,-0.21537c0.08946,-0.09746 0.20055,-0.1772 0.2469,-0.1772c0.04634,0 0.18764,-0.07719 0.31389,-0.1715c0.1263,-0.09426 0.29424,-0.1996 0.37329,-0.23398c0.07905,-0.03439 0.14369,-0.08659 0.14369,-0.11595c0,-0.02931 0.06971,-0.05335 0.15493,-0.05335c0.10142,0 0.17422,-0.03605 0.21084,-0.1045c0.03078,-0.05748 0.10429,-0.10451 0.1634,-0.10451c0.05915,0 0.16732,-0.04703 0.24036,-0.1045c0.0731,-0.05748 0.1856,-0.10451 0.25004,-0.10451c0.06448,0 0.14646,-0.03528 0.18226,-0.07838c0.03579,-0.0431 0.14082,-0.07838 0.23341,-0.07838c0.10205,0 0.20566,-0.04118 0.26299,-0.10451c0.06202,-0.06856 0.16093,-0.1045 0.28739,-0.1045c0.12645,0 0.22538,-0.03595 0.2874,-0.10451c0.0753,-0.08323 0.16094,-0.10451 0.42053,-0.10451c0.24151,0 0.33373,-0.02027 0.35605,-0.07838c0.02393,-0.06233 0.1356,-0.07838 0.54615,-0.07838c0.4557,0 0.5275,-0.01264 0.61408,-0.10832" stroke="#0464fc"/><path d="M204.09282,131.84628c0.64893,-0.06641 2.83586,-0.01547 3.08485,0.0719c0.11392,0.03998 0.34816,0.08961 0.5206,0.11036c0.17243,0.0207 0.36561,0.07101 0.42926,0.11181c0.06364,0.04076 0.17725,0.07416 0.25249,0.07416c0.13738,0 0.89263,0.23937 0.99034,0.31389c0.02873,0.0219 0.1287,0.05617 0.22207,0.07613c0.09337,0.01996 0.16982,0.05794 0.16982,0.08439c0,0.0265 0.01767,0.04555 0.03919,0.04247c0.07895,-0.01138 0.27432,0.07144 0.27432,0.11627c0,0.02535 0.03479,0.04614 0.07738,0.04614c0.04253,0 0.09139,0.05586 0.10853,0.12411c0.01715,0.06825 0.08811,0.15001 0.15776,0.18173c0.06966,0.03172 0.1266,0.08173 0.1266,0.11109c0,0.02931 0.03548,0.05334 0.0789,0.05334c0.04337,0 0.11914,0.04703 0.16836,0.10451c0.04923,0.05748 0.11527,0.10451 0.14677,0.10451c0.03146,0 0.14971,0.08344 0.26268,0.18543c0.11302,0.10199 0.38182,0.3107 0.59736,0.4638c0.4744,0.33698 1.52559,1.38931 2.06315,2.06546c0.95519,1.2015 1.82769,2.9295 2.13823,4.23493c0.03762,0.15806 0.09474,0.3932 0.12697,0.52253c0.18053,0.72444 0.27218,1.32544 0.32663,2.14236c0.06072,0.91056 0.10633,20.2752 0.04776,20.27322c-0.01437,-0.00052 -0.08396,-0.06187 -0.15472,-0.13638c-0.2516,-0.26508 -0.44257,-0.37235 -0.70745,-0.39722c-0.254,-0.02388 -0.43517,-0.09981 -1.30633,-0.54751c-0.22991,-0.11814 -0.68995,-0.34303 -1.02232,-0.49979c-0.33238,-0.1567 -0.83391,-0.4175 -1.11456,-0.57953c-0.28061,-0.16198 -0.52184,-0.29455 -0.53611,-0.29455c-0.01426,0 -0.18289,-0.09065 -0.3747,-0.20144c-0.19177,-0.11083 -0.59563,-0.33196 -0.89739,-0.49144c-0.30175,-0.15948 -0.68974,-0.36927 -0.86218,-0.46615c-0.70536,-0.39649 -2.96572,-1.51289 -3.51677,-1.737c-0.76117,-0.3096 -0.97038,-0.41892 -1.604,-0.83834c-0.28739,-0.19025 -0.88701,-0.52378 -1.33246,-0.74121c-0.91971,-0.44895 -1.29038,-0.66512 -1.95948,-1.14287c-0.25865,-0.18466 -0.71717,-0.4811 -1.01894,-0.65871c-1.22867,-0.72323 -2.33884,-1.75486 -3.05454,-2.83843c-0.3768,-0.5705 -0.81165,-1.34144 -0.98868,-1.75303c-0.08037,-0.18681 -0.17641,-0.41018 -0.21334,-0.49641c-0.08868,-0.20665 -0.44671,-1.12824 -0.68012,-1.75048c-0.10242,-0.27302 -0.22098,-0.57363 -0.26352,-0.668c-0.04253,-0.09437 -0.07734,-0.19663 -0.07734,-0.22726c0,-0.03063 -0.03381,-0.12974 -0.07515,-0.2203c-0.19986,-0.43809 -0.33457,-0.81336 -0.36864,-1.02682c-0.04348,-0.27255 -0.20128,-0.47028 -0.37523,-0.47028c-0.08857,0 -0.12394,-0.03193 -0.13047,-0.11756c-0.0718,-0.94692 0.21508,-3.80886 0.42253,-4.21488c0.0233,-0.04562 0.058,-0.18535 0.07717,-0.31049c0.01913,-0.12515 0.06933,-0.29444 0.11166,-0.37622c0.04227,-0.08178 0.07766,-0.19103 0.07865,-0.24271c0.00099,-0.05173 0.04718,-0.18811 0.10272,-0.30307c0.05554,-0.11496 0.10174,-0.23968 0.10274,-0.2772c0.00366,-0.1404 0.82116,-1.83905 0.88505,-1.83905c0.02477,0 0.05893,-0.04117 0.07587,-0.09144c0.07985,-0.23707 0.6308,-1.03357 1.18234,-1.70914c0.36629,-0.44869 1.46742,-1.4764 1.87786,-1.75262c0.06406,-0.0431 0.15586,-0.10748 0.20399,-0.14311c0.4663,-0.34482 1.20757,-0.80683 1.60286,-0.99902c0.63065,-0.30662 1.41626,-0.61659 1.68646,-0.66533c0.10707,-0.01934 0.23896,-0.05805 0.29314,-0.08611c0.14599,-0.07556 1.04265,-0.25441 1.52135,-0.30348" stroke="#cc66ff"/></g></g></svg>